<?xml version="1.0" standalone="no"?>
<!DOCTYPE svg PUBLIC "-//W3C//DTD SVG 20010904//EN"
 "http://www.w3.org/TR/2001/REC-SVG-20010904/DTD/svg10.dtd">
<svg version="1.0" xmlns="http://www.w3.org/2000/svg"
 width="700.000000pt" height="700.000000pt" viewBox="0 0 700.000000 700.000000"
 preserveAspectRatio="xMidYMid meet">
<metadata>
Created by potrace 1.14, written by Peter Selinger 2001-2017
</metadata>
<g transform="translate(0.000000,700.000000) scale(0.100000,-0.100000)"
fill="#000000" stroke="none">
<path d="M3165 6712 c-16 -1 -54 -7 -82 -13 -29 -6 -54 -10 -55 -9 -2 1 -50
-15 -108 -35 -58 -20 -238 -103 -400 -184 -197 -99 -315 -153 -354 -161 -141
-29 -321 -2 -529 80 -160 62 -225 69 -246 24 -35 -78 75 -220 269 -348 109
-72 171 -100 264 -120 73 -15 244 -14 326 2 30 6 72 14 93 17 44 6 43 5 216
119 507 333 612 358 949 221 43 -18 44 -18 39 -59 -3 -23 -11 -63 -17 -91 -6
-27 -13 -57 -15 -65 -2 -8 -13 -55 -25 -105 -30 -130 -46 -198 -70 -305 -12
-52 -32 -140 -46 -195 -24 -102 -52 -224 -60 -260 -2 -11 -6 -31 -9 -45 -3
-14 -18 -81 -35 -150 -17 -69 -51 -213 -75 -320 -25 -107 -70 -303 -101 -435
-31 -132 -57 -247 -59 -255 -2 -8 -14 -62 -28 -120 -24 -98 -80 -339 -82 -350
-38 -216 -38 -217 -86 -212 -18 2 -299 13 -459 17 -102 3 -248 7 -325 10 -77
2 -228 7 -335 10 -402 11 -710 22 -800 29 -31 2 -31 3 25 171 23 72 62 191 85
265 45 144 92 295 195 615 64 199 236 742 313 990 40 126 68 222 71 238 0 4 1
8 2 10 0 1 3 31 5 68 5 79 -6 99 -58 101 -72 3 -87 -27 -247 -477 -73 -203
-139 -388 -148 -410 -8 -22 -34 -94 -58 -160 -24 -66 -62 -172 -85 -235 -23
-63 -59 -162 -80 -220 -99 -275 -237 -644 -275 -735 -7 -16 -29 -72 -50 -122
-25 -61 -43 -93 -54 -94 -9 0 -68 -3 -131 -5 -152 -5 -172 -9 -204 -43 -25
-26 -27 -33 -22 -89 3 -34 29 -132 57 -219 69 -211 88 -248 136 -257 20 -4
318 -14 613 -21 102 -2 280 -7 395 -10 116 -3 316 -7 445 -10 129 -3 325 -7
435 -10 110 -3 290 -7 400 -10 110 -3 295 -7 410 -10 116 -3 318 -7 450 -10
912 -18 870 -13 961 -122 27 -32 51 -60 54 -63 3 -3 25 -30 50 -60 25 -30 47
-57 50 -60 3 -3 36 -42 74 -88 37 -45 81 -97 96 -115 15 -17 84 -99 153 -182
69 -82 154 -184 188 -226 35 -41 130 -156 211 -255 175 -214 554 -673 693
-840 55 -66 137 -165 182 -220 45 -54 105 -121 133 -149 l52 -50 -6 109 c-4
60 -8 112 -10 115 -2 3 -7 35 -10 71 -4 36 -9 76 -11 90 -2 14 -7 43 -9 65 -3
22 -8 58 -11 80 -3 22 -16 128 -30 235 -23 185 -28 223 -39 309 -3 20 -8 61
-12 91 -3 30 -8 62 -9 70 -1 8 -6 40 -10 70 -4 30 -9 62 -10 70 -2 8 -6 38 -9
65 -11 81 -16 117 -26 175 -5 30 -12 71 -14 90 -2 19 -14 100 -26 180 -12 80
-23 156 -25 170 -2 14 -6 45 -10 70 -4 25 -8 56 -10 70 -4 25 -22 162 -31 235
-2 22 -6 51 -9 65 -2 14 -7 57 -10 95 -3 39 -8 86 -10 105 -6 53 -20 218 -30
375 -3 50 -8 126 -11 170 -3 44 -7 164 -8 267 -2 102 -6 190 -8 195 -2 4 -3
35 -1 68 1 33 4 432 7 887 4 782 3 828 -14 843 -10 9 -33 18 -52 21 -30 5 -38
2 -56 -21 -30 -38 -39 -81 -47 -210 -4 -60 -8 -123 -10 -140 -2 -16 -6 -82
-10 -145 -3 -63 -8 -135 -10 -160 -2 -25 -6 -90 -9 -145 -4 -55 -8 -140 -11
-190 -9 -149 -14 -244 -20 -365 -3 -63 -8 -149 -10 -190 -16 -295 -19 -396
-19 -640 0 -241 4 -356 19 -515 1 -22 6 -71 9 -110 6 -68 12 -124 21 -215 2
-25 7 -77 10 -116 3 -39 7 -80 9 -90 2 -10 7 -61 11 -113 3 -51 8 -107 10
-125 7 -57 15 -140 20 -211 3 -38 7 -83 10 -100 2 -16 6 -66 10 -110 3 -44 8
-95 11 -112 3 -18 3 -33 0 -33 -4 0 -149 173 -276 330 -117 144 -557 683 -634
776 -50 61 -107 130 -126 154 -141 176 -164 200 -222 231 -92 48 -177 54 -913
65 -220 4 -402 8 -404 10 -2 2 4 45 12 96 9 51 19 110 22 131 11 80 16 113 20
137 7 37 10 61 50 330 20 135 38 256 40 270 10 62 25 159 30 200 3 25 12 86
20 135 8 50 17 110 20 135 3 25 8 52 10 60 2 8 6 35 9 60 5 38 42 294 62 420
11 71 53 356 59 400 3 25 8 52 10 60 2 8 6 38 10 65 3 28 8 62 10 78 3 15 7
39 10 55 2 15 9 67 15 115 12 95 43 177 67 177 8 0 27 8 41 18 30 21 210 84
289 102 59 13 210 17 263 6 123 -25 230 -73 430 -190 133 -78 264 -146 282
-146 8 0 37 -11 63 -25 51 -25 86 -35 139 -40 17 -1 54 -5 81 -9 196 -28 358
-1 540 92 128 64 267 187 285 250 17 63 13 109 -12 126 -29 21 -41 20 -90 -4
-23 -11 -95 -33 -159 -50 -265 -66 -507 -57 -694 26 -123 54 -157 70 -275 126
-309 148 -469 192 -700 192 -197 -1 -271 -20 -484 -125 -54 -27 -105 -49 -113
-49 -7 0 -36 18 -64 40 -121 95 -314 149 -474 132z"/>
</g>
</svg>
