<?xml version="1.0" encoding="UTF-8"?>
<svg version="1.1" xmlns="http://www.w3.org/2000/svg" width="512" height="512">
<path d="M0 0 C1.38711719 1.14404759 2.72433729 2.34827941 4.046875 3.56640625 C9.21048736 1.81077805 13.85441909 -0.36753897 18.671875 -2.93359375 C33.81167092 -10.69582664 50.79889898 -11.32461421 67.234375 -7.80859375 C68.22872559 -7.59867798 68.22872559 -7.59867798 69.24316406 -7.38452148 C82.76278556 -4.12793479 95.50485267 2.51099059 107.921875 8.61279297 C120.0944884 14.57547156 132.36062874 19.40521676 146.171875 18.94140625 C147.01878906 18.92561523 147.86570312 18.90982422 148.73828125 18.89355469 C161.34436124 18.55297947 172.49894629 15.94753998 184.20703125 11.31640625 C185.14417969 11.06890625 186.08132813 10.82140625 187.046875 10.56640625 C188.036875 11.22640625 189.026875 11.88640625 190.046875 12.56640625 C190.57639027 17.10510855 190.55939627 19.52000866 188.546875 23.62890625 C177.95403681 36.07549112 162.26045594 44.44296297 146.046875 46.56640625 C121.52939037 48.133636 102.69014913 39.21458941 82.31176758 26.34204102 C76.12714727 22.48578108 70.05537211 19.68235961 63.046875 17.56640625 C62.24765625 17.31246094 61.4484375 17.05851562 60.625 16.796875 C44.51834038 12.60806251 27.12306872 17.79753171 12.6484375 24.8671875 C8.68088517 29.07666375 8.49821643 37.46934358 7.67417908 43.08757019 C7.55066922 43.90758823 7.42715937 44.72760627 7.29990679 45.57247335 C6.89015205 48.29931961 6.48597233 51.02696176 6.08178711 53.75463867 C5.78789203 55.71817533 5.49364771 57.68165975 5.19908142 59.64509583 C4.40231367 64.96245799 3.61033167 70.28052323 2.81914592 75.5987184 C1.98976899 81.16751635 1.15574704 86.7356184 0.32215881 92.30378723 C-1.2556284 102.84752908 -2.82963326 113.39183164 -4.40209907 123.93636829 C-7.21975014 142.82987113 -10.04402556 161.72238448 -12.86938852 180.61473542 C-13.86078273 187.24489714 -14.8505862 193.87529386 -15.83905613 200.50589216 C-16.45350942 204.62634371 -17.06892865 208.74665062 -17.68456078 212.86692619 C-17.97000501 214.77887267 -18.2550191 216.69088341 -18.53957367 218.60296249 C-18.92772826 221.2108755 -19.31738969 223.81855911 -19.70741272 226.42619324 C-19.81986409 227.18436173 -19.93231546 227.94253023 -20.04817444 228.72367352 C-20.59358796 232.35961158 -21.19054869 235.96935502 -21.953125 239.56640625 C-21.3446875 239.56116943 -20.73625 239.55593262 -20.109375 239.55053711 C0.90627159 239.39794188 21.89296081 239.87075536 42.89764404 240.50323486 C44.84457847 240.56046024 46.79166855 240.61232794 48.73876953 240.66357422 C51.65468257 240.74188049 54.56929629 240.83708228 57.484375 240.94140625 C58.2563623 240.96001709 59.02834961 240.97862793 59.82373047 240.99780273 C67.36790445 241.31975809 74.50456516 243.23175571 80.12109375 248.4609375 C83.15952993 251.78287889 85.90146093 255.33058809 88.64135742 258.89868164 C92.04150283 263.32609272 95.57657168 267.59986826 99.234375 271.81640625 C103.20928662 276.40854798 107.09137923 281.04755535 110.859375 285.8125 C113.70759891 289.39821046 116.59508332 292.95125468 119.484375 296.50390625 C120.04729248 297.19621338 120.61020996 297.88852051 121.19018555 298.60180664 C125.79802702 304.26573727 130.41907347 309.91877438 135.046875 315.56640625 C136.54701781 317.39962273 138.04701582 319.23295771 139.546875 321.06640625 C140.289375 321.97390625 141.031875 322.88140625 141.796875 323.81640625 C144.046875 326.56640625 146.296875 329.31640625 148.546875 332.06640625 C149.28421875 332.96746094 150.0215625 333.86851562 150.78125 334.796875 C152.33389672 336.69485176 153.88595034 338.59331382 155.4375 340.4921875 C156.21609375 341.44480469 156.9946875 342.39742188 157.796875 343.37890625 C158.49296875 344.23097656 159.1890625 345.08304687 159.90625 345.9609375 C161.49093231 347.88973878 163.08185148 349.81222359 164.68066406 351.72924805 C165.46151367 352.66551025 166.24236328 353.60177246 167.046875 354.56640625 C166.96183842 353.66142301 166.96183842 353.66142301 166.87508392 352.73815727 C165.48643413 337.95216602 164.1092188 323.1651418 162.74420929 308.37695122 C162.08379281 301.22506391 161.41972768 294.07355297 160.74658203 286.92285156 C160.15881843 280.67904293 159.57839976 274.43459898 159.00623751 268.18934071 C158.70397573 264.89275731 158.39733357 261.59673712 158.08403015 258.30117416 C155.88914796 235.17228332 155.81009913 212.66734156 157.03515625 189.4921875 C157.14044407 187.42947765 157.24534853 185.3667482 157.34989929 183.30400085 C157.56916195 179.00203653 157.79223911 174.7002934 158.01831055 170.39868164 C158.30036831 165.02824152 158.57404831 159.65741662 158.84506416 154.28640938 C159.9382622 132.67343429 161.14480631 111.07275333 162.65234375 89.484375 C162.7152743 88.57917933 162.77820484 87.67398365 162.84304237 86.7413578 C163.02175978 84.18828788 163.20373804 81.63547856 163.38745117 79.08276367 C163.43937559 78.34852613 163.49130001 77.6142886 163.5447979 76.85780144 C163.69896415 74.75935021 163.86920899 72.66299215 164.046875 70.56640625 C164.14145209 69.36793784 164.14145209 69.36793784 164.23793983 68.14525795 C164.31094999 67.34675108 164.38396015 66.54824421 164.45918274 65.72554016 C164.52211675 65.00260427 164.58505075 64.27966837 164.64989185 63.53482533 C165.25858141 60.51667169 166.91402719 58.69925406 169.046875 56.56640625 C173.796875 57.31640625 173.796875 57.31640625 176.046875 59.56640625 C176.24548435 62.03068161 176.24548435 62.03068161 176.17298889 65.20721436 C176.15112392 66.41274712 176.12925896 67.61827988 176.10673141 68.86034393 C176.09010122 69.51516723 176.07347102 70.16999052 176.05633688 70.84465694 C176.00295117 72.95262527 175.96173173 75.060535 175.92355728 77.16883087 C175.86683074 80.25991921 175.80550334 83.35086949 175.74126625 86.44181061 C175.56897958 94.94814519 175.46296364 103.45552051 175.35644531 111.96289062 C175.33953752 113.31012797 175.33953752 113.31012797 175.32228816 114.68458223 C174.56746208 175.98398961 175.26400076 236.284487 183.796875 297.06640625 C183.93982121 298.08775563 183.93982121 298.08775563 184.08565521 299.12973833 C186.03832498 313.06286844 188.09456554 326.97918618 190.22955513 340.88557529 C193.6700921 363.30601768 196.52688429 385.79240727 199.3314209 408.29980469 C200.08355795 414.32201948 200.86001944 420.34092164 201.64160156 426.359375 C201.99159688 429.06850964 202.34113885 431.77770227 202.69045067 434.48692513 C202.90634189 436.15611327 203.12348415 437.82514018 203.34200478 439.49398613 C203.63715849 441.75191065 203.92679973 444.01047728 204.21508789 446.26928711 C204.37699112 447.51947128 204.53889435 448.76965546 204.70570374 450.057724 C205.04863466 453.58450299 205.10735098 457.02541073 205.046875 460.56640625 C197.49750678 453.26056604 190.77371548 445.3234813 184.34960938 437.02832031 C180.5090633 432.09313871 176.48500039 427.34136805 172.39404297 422.61303711 C167.84085705 417.34744291 163.43074083 411.97371134 159.046875 406.56640625 C156.05150702 402.89594587 153.05047786 399.23012969 150.046875 395.56640625 C149.52432129 394.92896484 149.00176758 394.29152344 148.46337891 393.63476562 C142.47899496 386.33932127 136.48713236 379.05459892 130.359375 371.87890625 C126.68003388 367.56851534 123.14312432 363.1707598 119.671875 358.69140625 C115.21618097 352.94626502 110.53545036 347.43546259 105.74707031 341.96582031 C101.83055543 337.4888024 98.03360433 332.93097688 94.2890625 328.30859375 C91.74433905 325.19640584 89.15073119 322.12910751 86.546875 319.06640625 C83.19235404 315.11994501 79.87465538 311.1499839 76.609375 307.12890625 C75.88878906 306.25363281 75.16820312 305.37835938 74.42578125 304.4765625 C73.15213421 302.91848854 71.88203053 301.35728372 70.63623047 299.77685547 C69.12388035 297.85871685 67.58698989 295.96228939 66.046875 294.06640625 C65.58482666 293.46642822 65.12277832 292.8664502 64.64672852 292.24829102 C60.08575856 286.71599609 54.96692594 284.96451739 47.89560127 284.24637032 C44.11982155 284.06046644 40.34787678 283.96893165 36.56860352 283.90844727 C35.11541605 283.87480855 33.66225724 283.83991265 32.20912743 283.80386925 C28.25789562 283.70924832 24.30648975 283.63163626 20.35484004 283.55683208 C16.1241475 283.47359633 11.89383812 283.37406226 7.66346741 283.27601624 C0.46958029 283.11100538 -6.72444902 282.9546648 -13.91864014 282.80352783 C-24.70689768 282.57594044 -35.49433752 282.31898996 -46.28173828 282.05419922 C-48.05978557 282.01066805 -49.83783313 281.96714809 -51.61588097 281.9236393 C-54.28902096 281.85821866 -56.96216074 281.79278992 -59.63529861 281.72728264 C-69.51910993 281.48541706 -79.4031007 281.2512165 -89.28710938 281.01757812 C-91.09003007 280.97492301 -92.89295073 280.93226643 -94.69587135 280.88960838 C-99.22181135 280.78255644 -103.74775381 280.67560875 -108.2736969 280.56868744 C-121.12330877 280.26510065 -133.9729097 279.96106309 -146.82246965 279.65528589 C-151.09757214 279.55359454 -155.3726818 279.45223304 -159.6478138 279.35178947 C-169.64949572 279.11673331 -179.65102181 278.87631922 -189.65229273 278.62433386 C-191.21553927 278.5849763 -192.77879063 278.54581031 -194.34204626 278.50681543 C-199.1450528 278.38680533 -203.94792767 278.26277444 -208.75068939 278.13332474 C-210.24250619 278.09357273 -211.73435302 278.05492831 -213.22623074 278.01753223 C-217.80353498 277.90213135 -222.37789185 277.74909123 -226.953125 277.56640625 C-228.12431948 277.52888182 -229.29551395 277.49135738 -230.50219917 277.45269585 C-232.11512509 277.36957492 -232.11512509 277.36957492 -233.76063538 277.28477478 C-234.69592607 277.24293532 -235.63121675 277.20109587 -236.59484959 277.15798855 C-238.953125 276.56640625 -238.953125 276.56640625 -240.71146297 274.68361759 C-242.16544287 272.20437391 -243.06877004 269.79938656 -243.9609375 267.06640625 C-244.30769531 266.01453125 -244.65445313 264.96265625 -245.01171875 263.87890625 C-245.53958984 262.23921875 -245.53958984 262.23921875 -246.078125 260.56640625 C-246.61759766 258.92671875 -246.61759766 258.92671875 -247.16796875 257.25390625 C-251.52265921 243.94518935 -251.52265921 243.94518935 -250.953125 237.56640625 C-248.91092768 234.91665226 -247.69092058 233.72340196 -244.38769531 233.02050781 C-243.44506836 232.99956055 -242.50244141 232.97861328 -241.53125 232.95703125 C-240.50644531 232.92480469 -239.48164063 232.89257812 -238.42578125 232.859375 C-237.36230469 232.84519531 -236.29882812 232.83101562 -235.203125 232.81640625 C-234.12417969 232.78675781 -233.04523438 232.75710938 -231.93359375 232.7265625 C-229.27336256 232.65593689 -226.61400398 232.60320429 -223.953125 232.56640625 C-213.74833058 208.5958052 -204.95930327 184.10162275 -196.06439209 159.62347412 C-194.68290272 155.82303153 -193.29863086 152.02360652 -191.91409302 148.22427368 C-190.62144306 144.67653294 -189.33012523 141.1283079 -188.03881836 137.58007812 C-187.07943757 134.9450114 -186.1188348 132.31039218 -185.15820312 129.67578125 C-181.98385693 120.96059209 -178.83011157 112.23877535 -175.72337723 103.49921417 C-173.91638885 98.41621785 -172.10040745 93.33648896 -170.27907944 88.25861359 C-169.16548865 85.1518044 -168.05898885 82.0427359 -166.96173096 78.93011475 C-165.73859852 75.46170632 -164.49813727 71.99994801 -163.25390625 68.5390625 C-162.89306442 67.50158371 -162.5322226 66.46410492 -162.16044617 65.39518738 C-160.20555057 60.01553693 -158.59512451 56.05580525 -153.953125 52.56640625 C-149.76264881 52.75688244 -149.76264881 52.75688244 -147.953125 54.56640625 C-147.18172764 61.9012333 -148.65439892 68.22042818 -150.8984375 75.1484375 C-151.21575333 76.16690765 -151.53306915 77.18537781 -151.86000061 78.23471069 C-152.91896104 81.62060129 -153.99836272 84.99959727 -155.078125 88.37890625 C-155.8387619 90.7949779 -156.59825539 93.21140978 -157.35668945 95.62817383 C-159.42838688 102.21396314 -161.51945424 108.79342738 -163.61639404 115.37121582 C-164.97818793 119.64324277 -166.33536513 123.91672865 -167.69189453 128.19042969 C-172.80086267 144.28246845 -177.93136967 160.36754142 -183.07723999 176.44781494 C-187.17501335 189.25368311 -191.25433024 202.06539037 -195.328125 214.87890625 C-196.16756449 217.51826138 -197.00707956 220.15759247 -197.84660339 222.79692078 C-198.88229501 226.05335731 -199.91771212 229.30988108 -200.953125 232.56640625 C-187.76845055 233.33485976 -174.58871467 233.83761995 -161.38687897 234.19715881 C-158.06048818 234.28776466 -154.73418968 234.38129525 -151.40789795 234.47546387 C-144.33971124 234.67502554 -137.2714227 234.8708221 -130.203125 235.06640625 C-122.00949378 235.29362554 -113.8159113 235.5224745 -105.62239838 235.75392151 C-102.39098515 235.84457767 -99.15951778 235.93305865 -95.92803955 236.0213623 C-82.26293673 236.40183148 -68.60869408 236.93010631 -54.953125 237.56640625 C-54.8303953 236.86885821 -54.7076656 236.17131018 -54.58121681 235.45262432 C-53.55118284 229.68047972 -52.42669851 223.95514869 -51.08740234 218.24731445 C-50.82219646 217.10244615 -50.82219646 217.10244615 -50.55163288 215.9344492 C-49.96656021 213.41145242 -49.37780211 210.88933089 -48.7890625 208.3671875 C-48.36375392 206.53619976 -47.93869704 204.70515354 -47.51387024 202.87405396 C-46.60007649 198.93741713 -45.68472609 195.00114681 -44.76815796 191.06515503 C-43.31236156 184.81306709 -41.86047399 178.56007575 -40.40942383 172.30688477 C-39.90803819 170.14634637 -39.40664961 167.98580866 -38.90525818 165.82527161 C-38.65338682 164.73991434 -38.40151546 163.65455708 -38.14201164 162.5363102 C-37.36344258 159.18187902 -36.58454684 155.82752385 -35.80555725 152.47319031 C-30.54289524 129.81084425 -25.29602931 107.14485513 -20.06007004 84.47632504 C-18.4547906 77.52646509 -16.84779102 70.57700617 -15.23940372 63.62786484 C-14.23642144 59.29267007 -13.23499894 54.95711613 -12.23402977 50.62145615 C-11.76790592 48.60379571 -11.30116464 46.58627779 -10.83376503 44.56891251 C-10.19435832 41.80862023 -9.55722287 39.0478132 -8.9206543 36.28686523 C-8.73434637 35.48499944 -8.54803844 34.68313364 -8.35608482 33.85696888 C-7.41758292 29.77495052 -6.58939324 25.7093728 -5.953125 21.56640625 C-9.56251541 20.08953641 -13.196702 18.75423025 -16.890625 17.50390625 C-17.88964844 17.16230469 -18.88867188 16.82070313 -19.91796875 16.46875 C-34.26374081 12.20379074 -44.87627179 16.11161521 -57.69067383 22.93286133 C-64.51893295 26.71685848 -70.95231263 31.1165619 -77.36865234 35.55419922 C-92.46438863 45.90514693 -105.58269048 49.2223111 -123.890625 47.00390625 C-134.80518805 44.95381637 -144.75617547 38.89328851 -152.953125 31.56640625 C-154.16162109 30.51453125 -154.16162109 30.51453125 -155.39453125 29.44140625 C-160.23866985 24.96271631 -164.44203963 20.44533904 -164.953125 13.56640625 C-163.963125 12.08140625 -163.963125 12.08140625 -162.953125 10.56640625 C-156.56403553 9.64771365 -151.59002283 12.01505399 -145.765625 14.44140625 C-132.06039787 19.887976 -116.41107991 23.82786385 -101.953125 18.56640625 C-94.58784936 15.24071441 -87.49123597 11.390256 -80.3671875 7.58203125 C-55.36639202 -5.73010762 -26.16716014 -19.20669554 0 0 Z " fill="#4C4CCD" transform="translate(265.953125,30.43359375)"/>
<path d="M0 0 C3.63261228 3.54114363 6.99452773 7.23248568 10.25 11.125 C10.72888672 11.69412109 11.20777344 12.26324219 11.70117188 12.84960938 C15.40380059 17.26031051 19.0489792 21.71672399 22.68359375 26.18359375 C25.27787266 29.33785192 27.91606265 32.4520298 30.5625 35.5625 C34.43123672 40.11145416 38.1977835 44.72507098 41.90625 49.40625 C44.38811041 52.48079349 46.93848513 55.49179044 49.5 58.5 C53.39075616 63.06925314 57.17928921 67.70172572 60.90625 72.40625 C63.38811347 75.48079728 65.93858593 78.49170092 68.5 81.5 C72.32515697 85.99499713 76.06217413 90.54337736 79.73046875 95.16796875 C84.45850033 101.06783604 89.29631174 106.87894198 94.109375 112.70947266 C97.28324322 116.55467302 100.4543229 120.40216824 103.625 124.25 C104.20459473 124.95261963 104.78418945 125.65523926 105.38134766 126.37915039 C108.28153449 129.89824307 111.16299754 133.42952861 114 137 C114.66 136.34 115.32 135.68 116 135 C116 137.31 116 139.62 116 142 C108.45063178 134.69415979 101.72684048 126.75707505 95.30273438 118.46191406 C91.4621883 113.52673246 87.43812539 108.7749618 83.34716797 104.04663086 C78.79398205 98.78103666 74.38386583 93.40730509 70 88 C67.00463202 84.32953962 64.00360286 80.66372344 61 77 C60.47744629 76.36255859 59.95489258 75.72511719 59.41650391 75.06835938 C53.43211996 67.77291502 47.44025736 60.48819267 41.3125 53.3125 C37.63315888 49.00210909 34.09624932 44.60435355 30.625 40.125 C26.17471771 34.38683663 21.49990041 28.88256522 16.71777344 23.41918945 C12.01848624 18.04665802 7.44320361 12.58766515 3 7 C2.42507813 6.30261719 1.85015625 5.60523438 1.2578125 4.88671875 C0 3 0 3 0 0 Z " fill="#5555DD" transform="translate(355,349)"/>
<path d="M0 0 C3.75085676 0.26636519 5.60809213 0.66153411 8.4921875 3.15234375 C9.27851563 4.07144531 10.06484375 4.99054688 10.875 5.9375 C11.73738281 6.93652344 12.59976562 7.93554688 13.48828125 8.96484375 C16.36434493 12.44027373 19.2184657 15.92716122 22.0078125 19.47265625 C24.12085924 22.15332534 26.27340187 24.79789934 28.4375 27.4375 C29.19417969 28.36046875 29.95085937 29.2834375 30.73046875 30.234375 C31.85388672 31.60335938 31.85388672 31.60335938 33 33 C38.74923513 40.01385432 44.47666198 47.04507592 50.19335938 54.08544922 C54.7818077 59.7349426 59.38705127 65.37049405 64 71 C65.50014281 72.83321648 67.00014082 74.66655146 68.5 76.5 C69.2425 77.4075 69.985 78.315 70.75 79.25 C73 82 75.25 84.75 77.5 87.5 C78.23734375 88.40105469 78.9746875 89.30210937 79.734375 90.23046875 C81.28702172 92.12844551 82.83907534 94.02690757 84.390625 95.92578125 C85.16921875 96.87839844 85.9478125 97.83101563 86.75 98.8125 C87.48476563 99.71613281 88.21953125 100.61976563 88.9765625 101.55078125 C90.65146909 103.57812958 92.37316019 105.54006872 94.125 107.5 C94.74375 108.325 95.3625 109.15 96 110 C95.505 111.485 95.505 111.485 95 113 C88.85848535 105.89631472 82.74791928 98.78869132 76.921875 91.421875 C73.33623264 86.90338259 69.65876306 82.45931292 66 78 C64.49971683 76.16689838 62.99971592 74.33356573 61.5 72.5 C60.7575 71.5925 60.015 70.685 59.25 69.75 C52.5 61.5 52.5 61.5 50.234375 58.73046875 C48.78702949 56.96177205 47.33914699 55.19351457 45.890625 53.42578125 C42.065273 48.75578036 38.24977614 44.07805618 34.44702148 39.38964844 C18.79486233 18.08074906 18.79486233 18.08074906 0 0 Z " fill="#5353DC" transform="translate(337,275)"/>
<path d="M0 0 C3.29714793 0.32971479 4.6226839 0.6226839 7 3 C7.24888897 5.03536415 7.24888897 5.03536415 7.24723816 7.59048462 C7.25143265 8.55771454 7.25562714 9.52494446 7.25994873 10.52148438 C7.25151947 12.11887451 7.25151947 12.11887451 7.24291992 13.74853516 C7.24481827 14.86739105 7.24671661 15.98624695 7.24867249 17.13900757 C7.25239147 20.85576276 7.24165617 24.57232451 7.23046875 28.2890625 C7.22927698 30.86778745 7.22882378 33.44651283 7.2290802 36.02523804 C7.22751315 41.44084573 7.21945206 46.85638323 7.20581055 52.27197266 C7.19013169 58.51914308 7.18481079 64.76625205 7.1855461 71.01344073 C7.18615858 77.03088569 7.18092164 83.04830575 7.17275429 89.06574631 C7.16957629 91.62135066 7.16760224 94.1769568 7.16686058 96.73256302 C7.16468493 100.31343873 7.15591272 103.89423838 7.14526367 107.47509766 C7.14571686 108.52787903 7.14617004 109.5806604 7.14663696 110.66534424 C7.12263649 116.20347572 6.8200874 121.52124624 6 127 C5.67 127 5.34 127 5 127 C4.505 66.115 4.505 66.115 4 4 C2.35 3.67 0.7 3.34 -1 3 C-1.33 3.66 -1.66 4.32 -2 5 C-2 2 -2 2 0 0 Z " fill="#5050D7" transform="translate(435,87)"/>
<path d="M0 0 C0.66 0.66 1.32 1.32 2 2 C1.09121094 2.53367188 0.18242187 3.06734375 -0.75390625 3.6171875 C-7.57179874 7.65022961 -14.2631042 11.79246807 -20.8125 16.25 C-35.80076355 26.37474081 -35.80076355 26.37474081 -40.26953125 25.61328125 C-40.84058594 25.41089844 -41.41164062 25.20851563 -42 25 C-39.04625316 23.03083544 -36.14765341 21.63433529 -32.9375 20.125 C-25.19330549 16.37660696 -18.20932205 11.62952739 -11.12890625 6.76953125 C-7.51918162 4.30371561 -3.82642686 2.11234895 0 0 Z " fill="#5252DB" transform="translate(209,50)"/>
<path d="M0 0 C0.53625 0.680625 1.0725 1.36125 1.625 2.0625 C2.40875 3.031875 3.1925 4.00125 4 5 C4.40089844 5.53109375 4.80179687 6.0621875 5.21484375 6.609375 C12.07938386 15.28456193 21.22049391 20.45785675 31.25 24.7734375 C34 26 34 26 37 28 C34.03954189 29.28652007 32.94543746 28.9793437 29.86328125 27.8125 C22.65467375 24.13285877 16.0674196 20.43703835 10 15 C9.17113281 14.26394531 8.34226562 13.52789062 7.48828125 12.76953125 C0.57783878 6.29302552 0.57783878 6.29302552 0 0 Z " fill="#5353DB" transform="translate(103,47)"/>
<path d="M0 0 C4.56515457 1.36129609 8.39506945 3.21766923 12.5 5.625 C13.72911002 6.33994115 14.95827846 7.05478186 16.1875 7.76953125 C16.81398438 8.13643066 17.44046875 8.50333008 18.0859375 8.88134766 C21.21383627 10.70941298 24.35647405 12.51148634 27.5 14.3125 C28.6034375 14.94800781 29.706875 15.58351563 30.84375 16.23828125 C33.85570965 17.9194617 36.90224807 19.48378106 40 21 C39.34 21.66 38.68 22.32 38 23 C28.06552253 17.89002905 18.24513341 12.7667823 8.859375 6.69140625 C5.64959166 4.79272294 2.45182099 3.40391227 -1 2 C-0.67 1.34 -0.34 0.68 0 0 Z " fill="#5252DA" transform="translate(336,48)"/>
<path d="M0 0 C5.33851078 -0.07420941 10.67672067 -0.12863002 16.015625 -0.16479492 C17.83143342 -0.17987262 19.64720547 -0.20033798 21.46289062 -0.22631836 C24.07431008 -0.2627468 26.68524765 -0.27973638 29.296875 -0.29296875 C30.51271271 -0.31619453 30.51271271 -0.31619453 31.75311279 -0.33988953 C36.6226349 -0.34134044 37.92357137 -0.05732147 42 3 C28.14 2.67 14.28 2.34 0 2 C0 1.34 0 0.68 0 0 Z " fill="#5050D7" transform="translate(208,310)"/>
<path d="M0 0 C0.8971875 0.5259375 0.8971875 0.5259375 1.8125 1.0625 C2.23466258 7.18385734 1.93993454 10.21276442 -2.1875 15.0625 C-7.53983084 20.47649364 -13.56810831 24.35943866 -20.1875 28.0625 C-20.8475 27.4025 -21.5075 26.7425 -22.1875 26.0625 C-21.25808594 25.505625 -20.32867187 24.94875 -19.37109375 24.375 C-8.87859987 18.22559996 -8.87859987 18.22559996 -1.1875 9.0625 C-0.66584302 6.44924695 -0.79686734 4.74112394 -1.1875 2.0625 C-2.5075 1.4025 -3.8275 0.7425 -5.1875 0.0625 C-2.1875 -0.9375 -2.1875 -0.9375 0 0 Z " fill="#5252DA" transform="translate(454.1875,41.9375)"/>
<path d="M0 0 C10.16722904 10.05906703 20.42011966 20.80627946 28 33 C27.01 33.495 27.01 33.495 26 34 C25.47792969 33.35675781 24.95585937 32.71351563 24.41796875 32.05078125 C16.13064974 21.87668208 7.69827371 11.82637746 -1 2 C-0.67 1.34 -0.34 0.68 0 0 Z " fill="#5353DC" transform="translate(326,315)"/>
<path d="M0 0 C10.56 0 21.12 0 32 0 C32 0.33 32 0.66 32 1 C34.475 1.495 34.475 1.495 37 2 C37 2.33 37 2.66 37 3 C18.685 2.505 18.685 2.505 0 2 C0 1.34 0 0.68 0 0 Z " fill="#5151D7" transform="translate(47,306)"/>
<path d="M0 0 C0.66 0.33 1.32 0.66 2 1 C1.34 2.32 0.68 3.64 0 5 C-0.68626465 5.02505615 -1.3725293 5.0501123 -2.07958984 5.07592773 C-5.17825817 5.19171427 -8.27660923 5.31451885 -11.375 5.4375 C-12.45523437 5.47681641 -13.53546875 5.51613281 -14.6484375 5.55664062 C-15.6796875 5.59853516 -16.7109375 5.64042969 -17.7734375 5.68359375 C-18.72653809 5.72025146 -19.67963867 5.75690918 -20.66162109 5.79467773 C-23.02132349 5.85763465 -23.02132349 5.85763465 -25 7 C-25.65772428 10.02934491 -25.65772428 10.02934491 -26 13 C-26.33 13 -26.66 13 -27 13 C-27.75 10.25 -27.75 10.25 -28 7 C-25.9789884 4.34090047 -24.73165904 3.15568991 -21.43457031 2.45410156 C-20.02062988 2.42268066 -20.02062988 2.42268066 -18.578125 2.390625 C-17.55332031 2.35839844 -16.52851563 2.32617188 -15.47265625 2.29296875 C-14.40917969 2.27878906 -13.34570312 2.26460938 -12.25 2.25 C-11.17105469 2.22035156 -10.09210937 2.19070313 -8.98046875 2.16015625 C-6.32023756 2.08953064 -3.66087898 2.03679804 -1 2 C-0.67 1.34 -0.34 0.68 0 0 Z " fill="#5151D8" transform="translate(43,261)"/>
<path d="M0 0 C0.33 0 0.66 0 1 0 C1.15298709 11.37204047 0.68416471 22.65019611 0 34 C-0.99 34.495 -0.99 34.495 -2 35 C-2 25.76 -2 16.52 -2 7 C-1.34 7 -0.68 7 0 7 C0 4.69 0 2.38 0 0 Z " fill="#5252D8" transform="translate(441,221)"/>
<path d="M0 0 C10.89 0 21.78 0 33 0 C32.67 0.99 32.34 1.98 32 3 C21.44 2.67 10.88 2.34 0 2 C0 1.34 0 0.68 0 0 Z " fill="#5353D7" transform="translate(85,307)"/>
<path d="M0 0 C9.9 0.33 19.8 0.66 30 1 C30 1.66 30 2.32 30 3 C20.1 3 10.2 3 0 3 C0 2.01 0 1.02 0 0 Z " fill="#5151D6" transform="translate(114,265)"/>
<path d="M0 0 C10.23 0.33 20.46 0.66 31 1 C30.67 1.66 30.34 2.32 30 3 C20.76 3 11.52 3 2 3 C2 2.34 2 1.68 2 1 C1.34 0.67 0.68 0.34 0 0 Z " fill="#5353D6" transform="translate(78,264)"/>
<path d="M0 0 C9.57 0.33 19.14 0.66 29 1 C28.67 1.66 28.34 2.32 28 3 C24.08347368 3.08714316 20.16719689 3.14043985 16.25 3.1875 C15.13882812 3.21263672 14.02765625 3.23777344 12.8828125 3.26367188 C11.81289063 3.27333984 10.74296875 3.28300781 9.640625 3.29296875 C8.65610352 3.3086792 7.67158203 3.32438965 6.65722656 3.34057617 C4 3 4 3 0 0 Z " fill="#5151D7" transform="translate(303,271)"/>
<path d="M0 0 C-4.62588582 2.50328484 -9.62683447 3.99033176 -14.58984375 5.68359375 C-17.98855293 6.87187399 -17.98855293 6.87187399 -20.75390625 8.72265625 C-21.49511719 9.14417969 -22.23632812 9.56570312 -23 10 C-23.99 9.67 -24.98 9.34 -26 9 C-18.83584748 4.08342474 -8.91061464 -2.67814392 0 0 Z " fill="#5454D9" transform="translate(302,46)"/>
<path d="M0 0 C2 3 2 3 1.67626953 5.0847168 C1.41442871 5.86500244 1.15258789 6.64528809 0.8828125 7.44921875 C0.46708984 8.72055664 0.46708984 8.72055664 0.04296875 10.01757812 C-0.25996094 10.89865234 -0.56289062 11.77972656 -0.875 12.6875 C-1.17019531 13.58017578 -1.46539062 14.47285156 -1.76953125 15.39257812 C-2.50117776 17.59931842 -3.24500884 19.80115945 -4 22 C-4.66 21.67 -5.32 21.34 -6 21 C-4.55613874 13.78069368 -2.42211826 6.94889267 0 0 Z " fill="#5353DA" transform="translate(92,169)"/>
<path d="M0 0 C0.66 0.33 1.32 0.66 2 1 C-1.07321848 14.27368833 -1.07321848 14.27368833 -4 20 C-4.66 20.33 -5.32 20.66 -6 21 C-4.55613874 13.78069368 -2.42211826 6.94889267 0 0 Z " fill="#5353DA" transform="translate(78,213)"/>
<path d="M0 0 C11.22 0 22.44 0 34 0 C34 0.99 34 1.98 34 3 C32.97386597 2.76228882 32.97386597 2.76228882 31.92700195 2.51977539 C28.64547588 1.9370438 25.49940079 1.78632513 22.16796875 1.68359375 C20.87568359 1.64169922 19.58339844 1.59980469 18.25195312 1.55664062 C16.89713808 1.51683648 15.54232033 1.47712409 14.1875 1.4375 C12.81313895 1.39426277 11.43878976 1.35064688 10.06445312 1.30664062 C6.70973331 1.2007021 3.3549414 1.09862811 0 1 C0 0.67 0 0.34 0 0 Z " fill="#5252DB" transform="translate(127,308)"/>
<path d="M0 0 C1.65 0 3.3 0 5 0 C5 0.33 5 0.66 5 1 C18.86 1.495 18.86 1.495 33 2 C33 2.33 33 2.66 33 3 C22.11 3 11.22 3 0 3 C0 2.01 0 1.02 0 0 Z " fill="#5353DD" transform="translate(266,270)"/>
<path d="M0 0 C8.91 3.96 8.91 3.96 18 8 C17.67 8.66 17.34 9.32 17 10 C10.48180123 8.10463724 4.82185199 5.4821006 -1 2 C-0.67 1.34 -0.34 0.68 0 0 Z " fill="#5252D9" transform="translate(367,36)"/>
<path d="M0 0 C0.33 0.66 0.66 1.32 1 2 C6.28 2 11.56 2 17 2 C17 2.99 17 3.98 17 5 C14.37335097 4.9132428 11.75021918 4.80642019 9.125 4.6875 C8.37863281 4.66494141 7.63226563 4.64238281 6.86328125 4.61914062 C4.900396 4.52188055 2.94671678 4.26957706 1 4 C0.34 3.01 -0.32 2.02 -1 1 C-0.67 0.67 -0.34 0.34 0 0 Z " fill="#5252D8" transform="translate(26,303)"/>
<path d="M0 0 C1 1 1 1 1.09765625 3.28515625 C1.08605469 4.20167969 1.07445313 5.11820312 1.0625 6.0625 C1.05347656 6.98160156 1.04445313 7.90070313 1.03515625 8.84765625 C1.02355469 9.55792969 1.01195313 10.26820312 1 11 C0.34 10.67 -0.32 10.34 -1 10 C-1.59355614 7.35139573 -1.74209269 4.70802678 -2 2 C-4.38564077 2.57584432 -6.66682784 3.22227595 -9 4 C-6.7570644 -0.96650025 -5.24855251 -1.3457827 0 0 Z " fill="#5454DC" transform="translate(117,84)"/>
<path d="M0 0 C0.70664795 0.15847412 1.4132959 0.31694824 2.14135742 0.48022461 C5.04175234 1.00759166 7.7938127 1.2061855 10.73828125 1.31640625 C11.80498047 1.35830078 12.87167969 1.40019531 13.97070312 1.44335938 C15.07349609 1.48267578 16.17628906 1.52199219 17.3125 1.5625 C18.99569336 1.62727539 18.99569336 1.62727539 20.71289062 1.69335938 C23.47514569 1.79914787 26.2374863 1.90123672 29 2 C29 2.33 29 2.66 29 3 C19.1 3 9.2 3 -1 3 C-0.67 2.01 -0.34 1.02 0 0 Z " fill="#5252DB" transform="translate(149,266)"/>
<path d="M0 0 C6.26480445 1.74732641 10.88233868 3.97120279 16 8 C15.34 8.66 14.68 9.32 14 10 C13.5153125 9.67386719 13.030625 9.34773438 12.53125 9.01171875 C7.82062995 5.94075683 3.32455084 3.80654404 -2 2 C-1.34 1.34 -0.68 0.68 0 0 Z " fill="#5757DB" transform="translate(250,23)"/>
<path d="M0 0 C0.66 0.99 1.32 1.98 2 3 C1.32788889 5.83747778 0.57330768 8.44554976 -0.375 11.1875 C-0.6225 11.93708984 -0.87 12.68667969 -1.125 13.45898438 C-1.73806985 15.30998373 -2.36749619 17.15555098 -3 19 C-3.66 18.67 -4.32 18.34 -5 18 C-3.75971762 11.82777121 -2.10396411 5.93317878 0 0 Z " fill="#5353DB" transform="translate(71,235)"/>
<path d="M0 0 C-4.82691165 3.2179411 -10.17665469 5.55059748 -16.0625 4.6875 C-17.031875 4.460625 -18.00125 4.23375 -19 4 C-19 3.67 -19 3.34 -19 3 C-16.39816412 2.30238463 -13.79416398 1.61662226 -11.1875 0.9375 C-10.08051758 0.63875977 -10.08051758 0.63875977 -8.95117188 0.33398438 C-3.33984375 -1.11328125 -3.33984375 -1.11328125 0 0 Z " fill="#5353D9" transform="translate(430,71)"/>
<path d="M0 0 C5.70044226 2.25953144 11.37643369 4.55497117 17 7 C16.67 7.66 16.34 8.32 16 9 C10.08030998 7.24009216 4.58365008 4.60305395 -1 2 C-0.67 1.34 -0.34 0.68 0 0 Z " fill="#5656DA" transform="translate(349,28)"/>
<path d="M0 0 C-1 3 -1 3 -3.8359375 4.640625 C-5.00382813 5.17171875 -6.17171875 5.7028125 -7.375 6.25 C-8.53773438 6.79140625 -9.70046875 7.3328125 -10.8984375 7.890625 C-14 9 -14 9 -17 8 C-14.05360001 6.03573334 -11.09912726 4.4654176 -7.9375 2.875 C-6.87402344 2.33617187 -5.81054688 1.79734375 -4.71484375 1.2421875 C-2 0 -2 0 0 0 Z " fill="#5151D8" transform="translate(178,43)"/>
<path d="M0 0 C5.28 1.32 10.56 2.64 16 4 C16 4.66 16 5.32 16 6 C10.43109483 5.52013969 5.32932432 4.70084819 0 3 C0 2.01 0 1.02 0 0 Z " fill="#5656D8" transform="translate(124,47)"/>
<path d="M0 0 C0.598125 0.350625 1.19625 0.70125 1.8125 1.0625 C2.08679625 6.45699293 2.17305646 9.58175805 -1.1875 14.0625 C-1.8475 13.4025 -2.5075 12.7425 -3.1875 12.0625 C-2.5275 11.0725 -1.8675 10.0825 -1.1875 9.0625 C-1.10844936 6.73050612 -1.09951231 4.39417378 -1.1875 2.0625 C-2.5075 1.4025 -3.8275 0.7425 -5.1875 0.0625 C-2.1875 -0.9375 -2.1875 -0.9375 0 0 Z " fill="#5B5ADD" transform="translate(454.1875,41.9375)"/>
<path d="M0 0 C4.51815455 0.53154759 7.45285063 2.17840391 11 5 C12.08338856 7.55370161 12 9.19226915 12 12 C11.34 12 10.68 12 10 12 C10 10.02 10 8.04 10 6 C9.278125 5.71125 8.55625 5.4225 7.8125 5.125 C5.20833333 4.08333333 2.60416667 3.04166667 0 2 C0 1.34 0 0.68 0 0 Z " fill="#5252D9" transform="translate(250,46)"/>
<path d="M0 0 C0.66 0.33 1.32 0.66 2 1 C1.54901762 2.93922422 1.08894441 4.87633594 0.625 6.8125 C0.36976562 7.89144531 0.11453125 8.97039062 -0.1484375 10.08203125 C-1 13 -1 13 -3 16 C-4.49828872 12.11764181 -3.43110582 9.56550712 -2.0625 5.75 C-1.68222656 4.67234375 -1.30195312 3.5946875 -0.91015625 2.484375 C-0.45962891 1.25460938 -0.45962891 1.25460938 0 0 Z " fill="#5252DB" transform="translate(85,191)"/>
<path d="M0 0 C0.66 0.66 1.32 1.32 2 2 C-0.0978523 3.20005531 -2.2020249 4.38502983 -4.3125 5.5625 C-4.90740234 5.90474609 -5.50230469 6.24699219 -6.11523438 6.59960938 C-7.70282559 7.47766262 -9.34993931 8.24586268 -11 9 C-11.99 8.67 -12.98 8.34 -14 8 C-11.16714998 6.11143332 -8.3051273 4.49453948 -5.3125 2.875 C-4.31863281 2.33617187 -3.32476562 1.79734375 -2.30078125 1.2421875 C-1.54152344 0.83226563 -0.78226562 0.42234375 0 0 Z " fill="#5051D9" transform="translate(285,27)"/>
<path d="M0 0 C0.66 0.33 1.32 0.66 2 1 C1.57709963 2.96153791 1.13618382 4.91919875 0.6875 6.875 C0.44386719 7.96554688 0.20023437 9.05609375 -0.05078125 10.1796875 C-1 13 -1 13 -4 15 C-2.9318153 9.88634986 -1.76892524 4.92772031 0 0 Z " fill="#5454DA" transform="translate(103,134)"/>
<path d="M0 0 C0.33 0 0.66 0 1 0 C1.08078641 2.12438339 1.13909141 4.2496323 1.1875 6.375 C1.22230469 7.55835938 1.25710938 8.74171875 1.29296875 9.9609375 C1.19628906 10.96382812 1.09960938 11.96671875 1 13 C0.01 13.66 -0.98 14.32 -2 15 C-1.85973717 12.68715544 -1.71264442 10.37472409 -1.5625 8.0625 C-1.48128906 6.77472656 -1.40007812 5.48695313 -1.31640625 4.16015625 C-1 1 -1 1 0 0 Z " fill="#5252D9" transform="translate(426,188)"/>
<path d="M0 0 C0.66 0 1.32 0 2 0 C1.67 4.62 1.34 9.24 1 14 C0.34 13.34 -0.32 12.68 -1 12 C-0.9765625 9.1796875 -0.9765625 9.1796875 -0.625 5.875 C-0.51414063 4.77929688 -0.40328125 3.68359375 -0.2890625 2.5546875 C-0.14597656 1.29011719 -0.14597656 1.29011719 0 0 Z " fill="#5151D8" transform="translate(252,198)"/>
<path d="M0 0 C0.66 0 1.32 0 2 0 C1.67 4.29 1.34 8.58 1 13 C0.34 12.34 -0.32 11.68 -1 11 C-0.9765625 8.3984375 -0.9765625 8.3984375 -0.625 5.375 C-0.51414063 4.37210938 -0.40328125 3.36921875 -0.2890625 2.3359375 C-0.19367188 1.56507813 -0.09828125 0.79421875 0 0 Z " fill="#5050D7" transform="translate(255,179)"/>
<path d="M0 0 C6.625 -0.25 6.625 -0.25 10 2 C7 3 7 3 4 2.9375 C0.81532057 2.73510628 0.81532057 2.73510628 -2 5 C-1.34 3.35 -0.68 1.7 0 0 Z " fill="#5151D9" transform="translate(103,41)"/>
<path d="M0 0 C2 3 2 3 1.5390625 5.48046875 C1.23742187 6.37378906 0.93578125 7.26710938 0.625 8.1875 C0.32851562 9.08855469 0.03203125 9.98960938 -0.2734375 10.91796875 C-0.63308594 11.94857422 -0.63308594 11.94857422 -1 13 C-1.66 12.67 -2.32 12.34 -3 12 C-2.68950274 10.56206608 -2.3765224 9.1246682 -2.0625 7.6875 C-1.88847656 6.88699219 -1.71445313 6.08648437 -1.53515625 5.26171875 C-1 3 -1 3 0 0 Z " fill="#5252DB" transform="translate(108,118)"/>
<path d="M0 0 C0.99 0.495 0.99 0.495 2 1 C2 2.32 2 3.64 2 5 C1.34 5 0.68 5 0 5 C0 3.35 0 1.7 0 0 Z M-1 5 C-0.34 5.33 0.32 5.66 1 6 C0.67 8.31 0.34 10.62 0 13 C-1.42944945 10.64561267 -2.08661261 9.51967567 -1.625 6.75 C-1.41875 6.1725 -1.2125 5.595 -1 5 Z " fill="#5151DA" transform="translate(220,226)"/>
<path d="M0 0 C0.66 0.33 1.32 0.66 2 1 C1.67 4.63 1.34 8.26 1 12 C0.34 11.67 -0.32 11.34 -1 11 C-0.67 7.37 -0.34 3.74 0 0 Z " fill="#5252D8" transform="translate(258,159)"/>
<path d="M0 0 C0.99 0.495 0.99 0.495 2 1 C2 2.32 2 3.64 2 5 C1.34 5 0.68 5 0 5 C0 3.35 0 1.7 0 0 Z M-1 5 C-0.34 5.33 0.32 5.66 1 6 C0.67 8.31 0.34 10.62 0 13 C-1.42944945 10.64561267 -2.08661261 9.51967567 -1.625 6.75 C-1.41875 6.1725 -1.2125 5.595 -1 5 Z " fill="#5353DB" transform="translate(256,71)"/>
<path d="M0 0 C0.66 0.33 1.32 0.66 2 1 C1.67 4.3 1.34 7.6 1 11 C0.34 11 -0.32 11 -1 11 C-0.67 7.37 -0.34 3.74 0 0 Z " fill="#5252D8" transform="translate(243,259)"/>
<path d="M0 0 C0.66 0.33 1.32 0.66 2 1 C1.01 4.3 0.02 7.6 -1 11 C-1.66 11 -2.32 11 -3 11 C-2.32829194 7.1936543 -1.27253436 3.64793184 0 0 Z " fill="#5151D9" transform="translate(64,206)"/>
<path d="M0 0 C0.66 0.33 1.32 0.66 2 1 C1.01 4.3 0.02 7.6 -1 11 C-1.66 11 -2.32 11 -3 11 C-2.32829194 7.1936543 -1.27253436 3.64793184 0 0 Z " fill="#5251D8" transform="translate(99,110)"/>
<path d="M0 0 C0.66 0.33 1.32 0.66 2 1 C1.01 4.3 0.02 7.6 -1 11 C-1.66 10.67 -2.32 10.34 -3 10 C-2.01 6.7 -1.02 3.4 0 0 Z " fill="#5151D8" transform="translate(86,146)"/>
<path d="M0 0 C2.80722691 4.21084037 1.94537893 6.11554218 1 11 C0.01 11.495 0.01 11.495 -1 12 C-0.67 8.04 -0.34 4.08 0 0 Z " fill="#5151D9" transform="translate(261,138)"/>
<path d="M0 0 C0.66 0.33 1.32 0.66 2 1 C1.01 4.3 0.02 7.6 -1 11 C-1.66 10.67 -2.32 10.34 -3 10 C-2.01 6.7 -1.02 3.4 0 0 Z " fill="#5354DB" transform="translate(95,121)"/>
<path d="M0 0 C2.26440734 4.52881469 2.090125 6.18528124 1 11 C0.01 11.495 0.01 11.495 -1 12 C-0.67 8.04 -0.34 4.08 0 0 Z " fill="#5151D8" transform="translate(249,218)"/>
<path d="M0 0 C0.66 0 1.32 0 2 0 C2 0.99 2 1.98 2 3 C1.34 3 0.68 3 0 3 C0 2.01 0 1.02 0 0 Z M-1 3 C-0.34 3.33 0.32 3.66 1 4 C0.67 6.31 0.34 8.62 0 11 C-1.42944945 8.64561267 -2.08661261 7.51967567 -1.625 4.75 C-1.41875 4.1725 -1.2125 3.595 -1 3 Z " fill="#5252D8" transform="translate(239,146)"/>
<path d="M0 0 C0.66 0.33 1.32 0.66 2 1 C1.34 3.97 0.68 6.94 0 10 C-0.66 9.67 -1.32 9.34 -2 9 C-1.34 6.03 -0.68 3.06 0 0 Z " fill="#5454DA" transform="translate(112,105)"/>
<path d="M0 0 C0.66 0.99 1.32 1.98 2 3 C1.125 6.6875 1.125 6.6875 0 10 C-0.66 9.67 -1.32 9.34 -2 9 C-1.34 6.03 -0.68 3.06 0 0 Z " fill="#5253DB" transform="translate(115,95)"/>
<path d="M0 0 C2.31 0.33 4.62 0.66 7 1 C6.67 1.99 6.34 2.98 6 4 C3.69 3.34 1.38 2.68 -1 2 C-0.67 1.34 -0.34 0.68 0 0 Z " fill="#5252D8" transform="translate(382,72)"/>
<path d="M0 0 C-2.38573379 1.89213369 -4.07175348 3.02391783 -7 4 C-7 3.01 -7 2.02 -7 1 C-3.375 -1.125 -3.375 -1.125 0 0 Z " fill="#5454DE" transform="translate(219,47)"/>
</svg>
